#!OML:ASF E:\Mandelcareful walks\Project 1\Capture day 1\Session 1\Subject1.ASF
:FULLY-SPECIFIED
:DEGREES
548
root -7.36226 14.9994 -1.04997 -502.872 -67.7842 -561.89
lowerback 25.7213 -0.878714 2.99636
upperback 7.6642 -1.25276 -1.24203
thorax -5.84167 -0.9115 -2.67301
lowerneck -26.3143 9.31648 1.92401
upperneck 23.5747 18.303 -20.6735
head 15.2724 5.00725 -4.89817
rclavicle -8.74653e-015 -1.51076e-014
rhumerus -20.1162 12.2381 -90.1769
rradius 36.0622
rwrist -52.8544
rhand 7.88983 -43.2372
rfingers 7.12502
rthumb 33.1223 -70.2116
lclavicle -8.74653e-015 -1.51076e-014
lhumerus -8.56232 -75.0308 101.961
lradius 54.1381
lwrist -0.171648
lhand -22.668 -13.118
lfingers 7.12502
lthumb 3.76371 16.8285
rfemur -47.6516 -10.4992 7.84148
rtibia 64.9369
rfoot -26.9786 -22.0161
rtoes -12.9957
lfemur -56.9981 19.3424 -28.8675
ltibia 75.4444
lfoot -9.43282 -8.79288
ltoes -7.48208
549
root -7.41475 14.9806 -1.12583 -502.214 -68.331 -562.922
lowerback 25.7548 -0.928905 3.25835
upperback 7.71055 -1.2643 -1.39591
thorax -5.81301 -0.915394 -2.98959
lowerneck -26.171 9.20953 1.92682
upperneck 22.4874 17.9226 -20.6939
head 14.6933 4.96221 -4.92388
rclavicle 1.03368e-014 -1.27222e-014
rhumerus -20.1018 12.1436 -90.272
rradius 35.4516
rwrist -52.9531
rhand 8.46261 -43.4255
rfingers 7.12502
rthumb 33.6668 -70.2826
lclavicle 1.03368e-014 -1.27222e-014
lhumerus -9.49241 -74.2976 103.574
lradius 53.406
lwrist -0.254374
lhand -22.6554 -12.8815
lfingers 7.12502
lthumb 3.77592 17.0648
rfemur -46.9229 -11.1938 7.95447
rtibia 65.2563
rfoot -26.9909 -22.3379
rtoes -15.2111
lfemur -57.6923 19.8154 -28.2949
ltibia 76.391
lfoot -8.11499 -9.65223
ltoes -11.6194
550
root -7.49222 14.9745 -1.18989 -501.878 -68.703 -563.544
lowerback 25.5621 -0.899716 3.6532
upperback 7.81479 -1.15691 -1.61354
thorax -5.60048 -0.857944 -3.49087
lowerneck -25.9742 8.97982 1.88096
upperneck 21.3662 17.3516 -20.6625
head 14.0656 4.84187 -4.96698
rclavicle 7.95139e-015 1.27222e-014
rhumerus -20.0249 12.0921 -90.2705
rradius 34.7432
rwrist -53.3047
rhand 8.98915 -43.3473
rfingers 7.12502
rthumb 34.167 -70.0938
lclavicle 7.95139e-015 1.27222e-014
lhumerus -10.3461 -73.8237 105.127
lradius 52.5364
lwrist -0.174782
lhand -22.4459 -12.822
lfingers 7.12502
lthumb 3.97818 17.1206
rfemur -46.0849 -11.7892 8.02082
rtibia 65.308
rfoot -27.2907 -22.265
rtoes -15.9202
lfemur -58.0503 20.2857 -27.7552
ltibia 76.4992
lfoot -7.68342 -9.6739
ltoes -12.7905
551
root -7.57215 14.9855 -1.24642 -501.624 -69.055 -563.859
lowerback 25.3945 -0.898532 3.887
upperback 7.95049 -1.12825 -1.8034
thorax -5.36924 -0.838443 -3.84465
lowerneck -26.5799 9.00751 1.99162
upperneck 20.5907 17.2462 -20.6974
head 13.8593 4.8376 -4.96766
rclavicle 9.54166e-015 0
rhumerus -19.8258 12.16 -90.2569
rradius 34.0785
rwrist -53.8648
rhand 9.15645 -43.4167
rfingers 7.12502
rthumb 34.3258 -70.1276
lclavicle 9.54166e-015 0
lhumerus -10.0108 -73.2786 105.343
lradius 51.5821
lwrist -0.333989
lhand -21.9392 -13.0595
lfingers 7.12502
lthumb 4.4675 16.8734
rfemur -45.3496 -12.2084 8.178
rtibia 65.107
rfoot -27.7396 -22.1475
rtoes -16.338
lfemur -58.3837 20.5916 -27.2514
ltibia 75.7041
lfoot -9.13122 -8.45921
ltoes -17.2811
552
root -7.65995 15.022 -1.2964 -501.544 -69.3827 -563.994
lowerback 25.5601 -0.884157 4.08317
upperback 7.71598 -1.04944 -2.06019
thorax -5.70764 -0.800829 -4.26412
lowerneck -26.3811 9.03895 2.46197
upperneck 19.94 17.0106 -20.8292
head 13.5719 4.83672 -5.11808
rclavicle 3.26007e-014 -2.46493e-014
rhumerus -20.1692 11.25 -90.5866
rradius 33.1738
rwrist -53.9624
rhand 9.31399 -43.3909
rfingers 7.12502
rthumb 34.4754 -70.0679
lclavicle 3.26007e-014 -2.46493e-014
lhumerus -12.1028 -72.9256 107.543
lradius 50.7805
lwrist -0.599378
lhand -21.4135 -13.2156
lfingers 7.12502
lthumb 4.97506 16.706
rfemur -44.4483 -12.5203 8.33549
rtibia 64.6418
rfoot -28.0698 -22.119
rtoes -17.0679
lfemur -58.4048 20.7066 -26.7125
ltibia 74.0149
lfoot -10.3749 -6.32685
ltoes -18.7153
553
root -7.74307 15.069 -1.33888 -501.385 -69.7952 -564.096
lowerback 25.3112 -0.790771 4.29205
upperback 7.90941 -0.909468 -2.16248
thorax -5.35671 -0.724367 -4.53982
lowerneck -26.9085 8.76383 2.06633
upperneck 19.1879 16.5343 -20.4708
head 13.2089 4.68085 -4.96683
rclavicle -2.78299e-014 1.51076e-014
rhumerus -19.653 9.99188 -90.5154
rradius 32.2353
rwrist -53.7476
rhand 9.55299 -43.219
rfingers 7.12502
rthumb 34.7022 -69.8441
lclavicle -2.78299e-014 1.51076e-014
lhumerus -11.5165 -73.3771 107.285
lradius 50.1644
lwrist -0.623107
lhand -20.9542 -13.1526
lfingers 7.12502
lthumb 5.41858 16.7581
rfemur -43.6215 -12.8211 8.53326
rtibia 64.0483
rfoot -28.3556 -22.0495
rtoes -16.9143
lfemur -58.4215 20.5608 -26.1522
ltibia 71.5599
lfoot -11.0825 -3.84859
ltoes -18.1291
